<svg xmlns="http://www.w3.org/2000/svg" version="1.1" xmlns:xlink="http://www.w3.org/1999/xlink" viewBox="0 0 200 200"><rect width="200" height="200" fill="url('#gradient')"></rect><defs><linearGradient id="gradient" gradientTransform="rotate(45 0.5 0.5)"><stop offset="0%" stop-color="#ffffff"></stop><stop offset="100%" stop-color="#ffffff"></stop></linearGradient></defs><g><g fill="#c4222d" transform="matrix(7.053960964408725,0,0,7.053960964408725,2.440710346542744,150.15303826523703)" stroke="#000000" stroke-width="0.2"><path d="M12.96-14.22L12.96 0L9.55 0L9.55-5.94L4.50-5.94L4.50 0L1.07 0L1.07-14.22L4.50-14.22L4.50-8.57L9.55-8.57L9.55-14.22L12.96-14.22ZM22.92 0L20.41-5.02L18.55-5.02L18.55 0L15.13 0L15.13-14.22L20.72-14.22Q23.25-14.22 24.68-13.10Q26.10-11.97 26.10-9.92L26.10-9.92Q26.10-8.44 25.50-7.46Q24.90-6.48 23.62-5.88L23.62-5.88L26.59-0.15L26.59 0L22.92 0ZM18.55-11.57L18.55-7.67L20.72-7.67Q21.70-7.67 22.19-8.18Q22.69-8.69 22.69-9.61Q22.69-10.53 22.19-11.05Q21.69-11.57 20.72-11.57L20.72-11.57L18.55-11.57Z"></path></g></g></svg>